# xmcd CD database file
#
# Track frame offsets:
#	150
#	61562
#	99697
#	128424
#	185838
#	216201
#
# Disc length: 3606 seconds
#
# Revision: 2
# Processed by: cddbd v1.5.2PL0 Copyright (c) Steve Scherf et al.
# Submitted via: CDex 1.51
#
DISCID=4e0e1406
DTITLE=Franco Alfano - Cello Sonata - Concerto for Violin, Cello and Piano
DYEAR=2007
DGENRE=Musique Contemporaine
TTITLE0=Concerto for Violin, Cello and Piano (1932) - I. Con dolce malinconia
TTITLE1=Concerto for Violin, Cello and Piano (1932) - II. Allegretto fantastico
TTITLE2=Concerto for Violin, Cello and Piano (1932) - III. Presto
TTITLE3=Sonata for Cello and Piano (1925) - I. Assai lento  ...  [Samuel Magill, Cello]
TTITLE4=Sonata for Cello and Piano (1925) - II. Allegretto con grazia  ...  [Scott Dunn, piano]
TTITLE5=Sonata for Cello and Piano (1925) - III. Presto, appassionato  ...  [E.Darvarova, piano]
EXTD=YEAR: 2007
EXTT0=
EXTT1=
EXTT2=
EXTT3=
EXTT4=
EXTT5=
PLAYORDER=
